<?xml version="1.0" encoding="UTF-8"?>
<svg width="16px" height="16px" viewBox="0 0 16 16" version="1.1" xmlns="http://www.w3.org/2000/svg" xmlns:xlink="http://www.w3.org/1999/xlink">
    <!-- Generator: Sketch 63.1 (92452) - https://sketch.com -->
    <title>ic-archive@1x</title>
    <desc>Created with Sketch.</desc>
    <g id="ic-archive" stroke="none" stroke-width="1" fill="none" fill-rule="evenodd">
        <g id="编组">
            <g id="矩形">
                <g>
                    <path d="M2,0 L14,0 C15.1045695,-2.02906125e-16 16,0.8954305 16,2 L16,14 C16,15.1045695 15.1045695,16 14,16 L2,16 C0.8954305,16 1.3527075e-16,15.1045695 0,14 L0,2 C-1.3527075e-16,0.8954305 0.8954305,2.02906125e-16 2,0 Z" fill="#E3ECF7"></path>
                    <rect fill="#66768A" x="6" y="9" width="4" height="4"></rect>
                    <rect id="矩形备份-5" fill="#E3ECF7" x="7" y="11" width="2" height="1"></rect>
                    <rect id="矩形备份" fill="#66768A" x="6" y="0" width="2" height="2"></rect>
                    <rect id="矩形备份-2" fill="#66768A" x="8" y="2" width="2" height="2"></rect>
                    <rect id="矩形备份-3" fill="#66768A" x="6" y="4" width="2" height="2"></rect>
                    <rect id="矩形备份-4" fill="#66768A" x="8" y="6" width="2" height="2"></rect>
                </g>
            </g>
        </g>
    </g>
</svg>