<?xml version="1.0" encoding="UTF-8"?>
<svg width="16px" height="16px" viewBox="0 0 16 16" version="1.1" xmlns="http://www.w3.org/2000/svg" xmlns:xlink="http://www.w3.org/1999/xlink">
    <!-- Generator: Sketch 63.1 (92452) - https://sketch.com -->
    <title>ic-ppt@1x</title>
    <desc>Created with Sketch.</desc>
    <defs>
        <path d="M14,14 C14,15.1045695 13.1045695,16 12,16 L2,16 C0.8954305,16 1.3527075e-16,15.1045695 0,14 L0,2 C-1.3527075e-16,0.8954305 0.8954305,2.02906125e-16 2,0 L9,0 L14,5 L14,14 Z" id="path-1"></path>
    </defs>
    <g id="ic-ppt" stroke="none" stroke-width="1" fill="none" fill-rule="evenodd">
        <g id="编组" transform="translate(1.000000, 0.000000)">
            <g id="矩形">
                <g>
                    <mask id="mask-2" fill="white">
                        <use xlink:href="#path-1"></use>
                    </mask>
                    <use id="形状结合" fill="#FA6400" xlink:href="#path-1"></use>
                    <path d="M9,0 L14,0 L14,5 L10,5 C9.44771525,5 9,4.55228475 9,4 L9,0 L9,0 Z" fill="#FFCDAB" mask="url(#mask-2)"></path>
                </g>
            </g>
        </g>
        <path d="M6.936,12.712 L6.936,10.52 L8.352,10.52 C9.744,10.52 10.44,9.928 10.44,8.752 C10.44,7.584 9.744,7 8.368,7 L6,7 L6,12.712 L6.936,12.712 Z M8.296,9.72 L6.936,9.72 L6.936,7.8 L8.296,7.8 C8.704,7.8 9.008,7.872 9.2,8.024 C9.392,8.168 9.496,8.408 9.496,8.752 C9.496,9.096 9.4,9.344 9.208,9.496 C9.016,9.64 8.712,9.72 8.296,9.72 Z" id="P" fill="#FFFFFF" fill-rule="nonzero"></path>
    </g>
</svg>