<?xml version="1.0" encoding="UTF-8"?>
<svg width="16px" height="16px" viewBox="0 0 16 16" version="1.1" xmlns="http://www.w3.org/2000/svg" xmlns:xlink="http://www.w3.org/1999/xlink">
    <!-- Generator: Sketch 63.1 (92452) - https://sketch.com -->
    <title>ic-xlsx@1x</title>
    <desc>Created with Sketch.</desc>
    <defs>
        <path d="M14,14 C14,15.1045695 13.1045695,16 12,16 L2,16 C0.8954305,16 1.3527075e-16,15.1045695 0,14 L0,2 C-1.3527075e-16,0.8954305 0.8954305,2.02906125e-16 2,0 L9,0 L14,5 L14,14 Z" id="path-1"></path>
    </defs>
    <g id="ic-xlsx" stroke="none" stroke-width="1" fill="none" fill-rule="evenodd">
        <g id="编组" transform="translate(1.000000, 0.000000)">
            <g id="矩形">
                <g>
                    <mask id="mask-2" fill="white">
                        <use xlink:href="#path-1"></use>
                    </mask>
                    <use id="形状结合" fill="#07B552" xlink:href="#path-1"></use>
                    <path d="M9,0 L14,0 L14,5 L10,5 C9.44771525,5 9,4.55228475 9,4 L9,0 L9,0 Z" fill="#CAFEDF" mask="url(#mask-2)"></path>
                </g>
            </g>
        </g>
        <polygon id="X" fill="#FFFFFF" fill-rule="nonzero" points="6.144 12.712 7.616 10.504 9.088 12.712 10.232 12.712 8.176 9.76 10.104 7 8.96 7 7.616 9.016 6.272 7 5.128 7 7.04 9.76 5 12.712"></polygon>
    </g>
</svg>