<svg class="icon" style="width: 1.0029296875em; height: 1em;vertical-align: middle;fill: currentColor;overflow: hidden;" viewBox="0 0 1027 1024" version="1.1" xmlns="http://www.w3.org/2000/svg" p-id="1559"><path d="M1018.496 974.848l-225.536-225.536c69.44-79.552 111.744-183.296 111.744-296.896C904.704 202.944 701.888 0 452.416 0S0 202.944 0 452.416c0 249.408 202.944 452.288 452.416 452.288 116.928 0 223.36-44.928 303.808-118.08l225.344 225.344c5.12 5.12 11.84 7.68 18.496 7.68 6.656 0 13.504-2.56 18.496-7.68C1028.8 1001.728 1028.8 985.152 1018.496 974.848M452.416 852.288c-220.544 0-400-179.392-400-399.936 0-220.544 179.456-400 400-400 220.48 0 400 179.456 400 400C852.352 672.96 672.896 852.288 452.416 852.288" p-id="1560"></path></svg>
