<?xml version="1.0" encoding="UTF-8"?>
<svg width="108px" height="108px" viewBox="0 0 108 108" version="1.1" xmlns="http://www.w3.org/2000/svg" xmlns:xlink="http://www.w3.org/1999/xlink">
    <!-- Generator: Sketch 63.1 (92452) - https://sketch.com -->
    <title>pic-moren</title>
    <desc>Created with Sketch.</desc>
    <defs>
        <path d="M1.37560272,0 L24.7877644,0 C25.0397168,-5.37535341e-15 25.2823837,0.0951067698 25.4672405,0.266302338 L32.4507282,6.73369766 C32.635585,6.90489323 32.878252,7 33.1302043,7 L57.2296704,7 C61.3187163,7 64.9958038,9.48950944 66.5144373,13.2860932 L75.4514437,35.6286093 C75.6565571,36.1413928 75.4071412,36.7233633 74.8943577,36.9284767 C74.7762374,36.9757248 74.6501865,37 74.522967,37 L17.8156326,37 C14.3482345,37 11.2755586,34.7663058 10.20585,31.4680376 L0.424379902,1.3085047 C0.253997462,0.783158841 0.541752166,0.219159621 1.06709802,0.0487771811 C1.16674333,0.0164597834 1.27084776,2.46173383e-15 1.37560272,0 Z" id="path-1"></path>
    </defs>
    <g id="pic-moren" stroke="none" stroke-width="1" fill="none" fill-rule="evenodd">
        <g id="编组-18" transform="translate(0.000000, 18.000000)">
            <g id="编组-19" transform="translate(82.000000, 0.000000)">
                <rect id="矩形" fill="#0091FF" x="4" y="0" width="2" height="4" rx="1"></rect>
                <rect id="矩形备份-18" fill="#D8D8D8" transform="translate(8.000000, 5.000000) rotate(-270.000000) translate(-8.000000, -5.000000) " x="7" y="3" width="2" height="4" rx="1"></rect>
                <rect id="矩形备份-17" fill="#0091FF" x="4" y="6" width="2" height="4" rx="1"></rect>
                <rect id="矩形备份-19" fill="#D8D8D8" transform="translate(2.000000, 5.000000) rotate(-270.000000) translate(-2.000000, -5.000000) " x="1" y="3" width="2" height="4" rx="1"></rect>
            </g>
            <rect id="矩形" fill="#B4B5B9" x="0" y="66" width="93" height="5" rx="2.5"></rect>
            <rect id="矩形备份-16" fill="#B4B5B9" x="98" y="66" width="10" height="5" rx="2.5"></rect>
            <path d="M7,52.2038325 C7,49.0991656 9.51682984,46.5823357 12.6214968,46.5823357 C12.747772,46.5823357 12.8740114,46.5865905 13,46.5950928 L15.2693256,46.7482372 C17.3691503,46.8899429 19,48.6345591 19,50.7391598 L19,51 C19,53.209139 17.209139,55 15,55 L15,59 L7,55.3349609 L7,52.2038325 Z" id="形状结合" fill="#205FE2"></path>
            <path d="M38.5737569,32 L80.0063324,32 C83.3200409,32 86.0063324,34.6862915 86.0063324,38 C86.0063324,38.305447 85.983008,38.610448 85.9365626,38.9123431 L81.3913582,68.4561716 C81.1662051,69.9196666 79.9069564,71 78.4262431,71 L33.4968338,71 C31.8399795,71 30.4968338,69.6568542 30.4968338,68 C30.4968338,67.8472765 30.508496,67.694776 30.5317187,67.5438284 L35.6086418,34.5438284 C35.8337949,33.0803334 37.0930436,32 38.5737569,32 Z" id="矩形" fill="#2A2E4E"></path>
            <g id="编组-17" transform="translate(20.000000, 7.000000)">
                <path d="M54,0 L54,6 L49,6 L49,57 C49,59.209139 47.209139,61 45,61 L4,61 C1.790861,61 2.705415e-16,59.209139 0,57 L0,4 C-7.1463071e-16,1.790861 1.790861,4.05812251e-16 4,0 L54,0 Z" id="形状结合" fill="#F8FBFF"></path>
                <rect id="矩形" fill="#749AC7" opacity="0.300000012" x="6" y="9" width="37" height="6"></rect>
                <rect id="矩形" fill="#749AC7" opacity="0.300000012" x="6" y="18" width="12" height="30"></rect>
                <rect id="矩形备份-15" fill="#749AC7" opacity="0.300000012" x="21" y="18" width="22" height="30"></rect>
                <path d="M53.5,0 C55.9852814,-4.56538782e-16 58,2.01471863 58,4.5 L58,12 L58,12 L49,12 L49,4.5 C49,2.01471863 51.0147186,4.56538782e-16 53.5,0 Z" id="矩形" fill="#56667F"></path>
            </g>
            <g id="形状结合" transform="translate(5.000000, 34.000000)">
                <mask id="mask-2" fill="white">
                    <use xlink:href="#path-1"></use>
                </mask>
                <use id="蒙版" fill="#465687" xlink:href="#path-1"></use>
                <path d="M22.5,17 C22.7652165,17 23.0195704,17.1053568 23.2071068,17.2928932 L28.5710678,22.6568542 C28.9615921,23.0473785 28.9615921,23.6805435 28.5710678,24.0710678 L23.2071068,29.4350288 C22.8165825,29.8255531 22.1834175,29.8255531 21.7928932,29.4350288 C21.6053568,29.2474925 21.5,28.9931386 21.5,28.7279221 L21.5,25.863 L7,25.863961 L7,19.863961 L21.5,19.863 L21.5,18 C21.5,17.4477153 21.9477153,17 22.5,17 Z" fill="#2D395F" opacity="0.200000003" mask="url(#mask-2)"></path>
            </g>
            <path d="M27,51.9289322 C27.2652165,51.9289322 27.5195704,52.034289 27.7071068,52.2218254 L33.7781746,58.2928932 C34.1686989,58.6834175 34.1686989,59.3165825 33.7781746,59.7071068 L27.7071068,65.7781746 C27.3165825,66.1686989 26.6834175,66.1686989 26.2928932,65.7781746 C26.1053568,65.5906382 26,65.3362843 26,65.0710678 L26,62.9999322 L14,63 C10.1340068,63 7,59.8659932 7,56 L7,52 C10.0694016,53.9591111 13.6348627,55 17.2762007,55 L26,54.9999322 L26,52.9289322 C26,52.3766474 26.4477153,51.9289322 27,51.9289322 Z" id="形状结合" fill="#0091FF"></path>
        </g>
    </g>
</svg>